<svg width="650" height="511" viewBox="0 0 650 511" fill="none" xmlns="http://www.w3.org/2000/svg">
<path d="M528.568 98.611C517.63 87.8786 509.094 73.7998 493.187 73.7998C481.393 73.7998 478.002 86.7287 468.022 90.1784C457.555 93.805 449.594 84.429 440.012 82.4535C423.957 79.1217 424.444 90.3848 417.456 100.012C410.837 109.137 396.271 96.3112 389.077 107.103C382.826 116.479 373.362 122.641 368.202 121.638C363.042 120.636 351.602 114.4 341.194 120.636C330.786 126.872 326.629 132.091 316.206 132.091C305.784 132.091 292.28 135.216 292.28 135.216H573.267C573.267 135.216 563.905 112.321 549.34 110.228C540.775 109.004 534.332 104.272 528.568 98.611Z" fill="white"/>
<path d="M205.286 140.538C199.713 135.084 195.379 127.919 187.256 127.919C181.256 127.919 179.531 134.494 174.46 136.248C169.138 138.091 165.098 133.3 160.233 132.327C152.081 130.632 152.317 136.351 148.764 141.246C145.403 145.89 138.002 139.374 134.331 144.858C131.162 149.62 126.341 152.76 123.732 152.229C121.122 151.698 115.284 148.543 109.992 151.728C104.699 154.912 102.621 157.551 97.2841 157.551C93.1899 157.699 89.1183 158.227 85.1217 159.128H227.709C227.709 159.128 223.286 147.497 215.915 146.435C211.82 145.692 208.084 143.619 205.286 140.538Z" fill="white"/>
<path d="M349.878 23.7057C346.737 20.6098 344.275 16.5557 339.676 16.5557C336.27 16.5557 335.253 20.2707 332.423 21.2732C329.592 22.2757 327.115 19.6221 324.359 19.0471C319.73 18.0889 319.936 21.3322 317.857 24.1037C315.779 26.8752 311.754 23.0423 309.69 26.1529C307.877 28.8507 305.15 30.5755 303.675 30.3397C302.201 30.1038 298.884 28.2463 295.891 30.0448C292.899 31.8434 291.69 33.3471 288.682 33.3471C286.365 33.432 284.06 33.7331 281.798 34.2464H358.266C358.266 34.2464 360.064 27.6566 355.863 27.0521C353.556 26.6191 351.454 25.444 349.878 23.7057Z" fill="white"/>
<path opacity="0.5" d="M528.568 98.611C517.63 87.8786 509.094 73.7998 493.187 73.7998C481.393 73.7998 478.002 86.7287 468.022 90.1784C457.555 93.805 449.594 84.429 440.012 82.4535C423.957 79.1217 424.444 90.3848 417.456 100.012C410.837 109.137 396.271 96.3112 389.077 107.103C382.826 116.479 373.362 122.641 368.202 121.638C363.042 120.636 351.602 114.4 341.194 120.636C330.786 126.872 326.629 132.091 316.206 132.091C305.784 132.091 292.28 135.216 292.28 135.216H573.267C573.267 135.216 563.905 112.321 549.34 110.228C540.775 109.004 534.332 104.272 528.568 98.611Z" fill="white"/>
<path opacity="0.5" d="M205.286 140.538C199.713 135.084 195.379 127.919 187.256 127.919C181.256 127.919 179.531 134.494 174.46 136.248C169.138 138.091 165.098 133.3 160.233 132.327C152.081 130.632 152.317 136.351 148.764 141.246C145.403 145.89 138.002 139.374 134.331 144.858C131.162 149.62 126.341 152.76 123.732 152.229C121.122 151.698 115.284 148.543 109.992 151.728C104.699 154.912 102.621 157.551 97.2841 157.551C93.1899 157.699 89.1183 158.227 85.1217 159.128H227.709C227.709 159.128 223.286 147.497 215.915 146.435C211.82 145.692 208.084 143.619 205.286 140.538Z" fill="white"/>
<path opacity="0.5" d="M349.878 23.7057C346.737 20.6098 344.275 16.5557 339.676 16.5557C336.27 16.5557 335.253 20.2707 332.423 21.2732C329.592 22.2757 327.115 19.6221 324.359 19.0471C319.73 18.0889 319.936 21.3322 317.857 24.1037C315.779 26.8752 311.754 23.0423 309.69 26.1529C307.877 28.8507 305.15 30.5755 303.675 30.3397C302.201 30.1038 298.884 28.2463 295.891 30.0448C292.899 31.8434 291.69 33.3471 288.682 33.3471C286.365 33.432 284.06 33.7331 281.798 34.2464H358.266C358.266 34.2464 360.064 27.6566 355.863 27.0521C353.556 26.6191 351.454 25.444 349.878 23.7057Z" fill="white"/>
<path d="M89.5001 510.037H497.138L647.641 356.467L650 351.101L486.214 144.857L453.457 175.197L322.428 40.5264L196.263 215.237L139.24 173.988L0 374.718L89.5001 510.037Z" fill="#BC986A"/>
<path opacity="0.55" d="M89.5001 510.037H497.138L647.641 356.467L650 351.101L486.214 144.857L453.457 175.197L322.428 40.5264L196.263 215.237L139.24 173.988L0 374.718L89.5001 510.037Z" fill="white"/>
<path d="M510.479 192.179L498.347 184.897L503.197 212.804L453.457 175.196L486.214 144.857L514.416 180.371L510.479 192.179ZM303.027 109.623L312.727 124.173L329.71 104.773L368.541 164.213L380.674 120.532L397.657 132.665L398.822 118.984L322.442 40.585L268.456 115.328L269.061 134.007L303.027 109.623ZM185.339 232.234L188.465 209.605L139.24 173.987L100.321 230.096L125.899 206.745L138.032 227.384L157.432 212.833L185.339 232.234Z" fill="white"/>
<path opacity="0.1" d="M145.491 249.704L128.832 236.171L119.456 270.52L160.056 328.811L137.162 332.969L150.695 416.233L203.767 255.955L190.249 254.908L196.263 215.237L139.24 173.988L157.432 212.805L145.491 249.704Z" fill="black"/>
<path opacity="0.1" d="M372.183 211.595L386.733 370.517L360.064 412.193L490.327 510.037H497.138L647.641 356.467L650 351.101L486.214 144.857L512.912 203.104L486.214 189.747L475.304 193.389L453.457 175.197L322.427 40.5264L410.999 240.711L372.183 211.595Z" fill="black"/>
<path d="M112.896 140.568C112.896 140.568 122.994 136.528 141.186 140.568C159.378 144.607 176.568 157.757 203.841 161.796C231.114 165.836 248.303 156.74 251.34 141.585C254.377 126.43 240.225 124.395 231.129 131.472C222.033 138.548 231.129 150.637 231.129 150.637" stroke="#263238" stroke-width="0.75" stroke-linecap="round" stroke-linejoin="round" stroke-dasharray="2 2"/>
<path d="M198.784 171.895C198.784 171.895 211.934 176.951 234.166 171.895C256.397 166.838 258.417 141.585 275.591 128.449C292.766 115.314 306.919 129.452 306.919 141.585C306.919 153.717 297.823 155.722 288.727 155.722" stroke="#263238" stroke-width="0.75" stroke-linecap="round" stroke-linejoin="round" stroke-dasharray="2 2"/>
<path d="M448.459 296.025C448.459 296.025 461.594 289.966 478.769 306.123C495.944 322.281 516.155 340.488 543.443 338.468C570.731 336.448 581.847 312.197 605.08 307.141C628.314 302.084 639.445 316.237 639.445 325.333C639.445 334.429 624.29 346.547 616.211 337.451" stroke="#263238" stroke-width="0.75" stroke-linecap="round" stroke-linejoin="round" stroke-dasharray="2 2"/>
<path d="M416.114 316.265C416.114 316.265 449.461 306.152 466.651 320.305C483.84 334.457 498.981 355.686 524.249 355.686" stroke="#263238" stroke-width="0.75" stroke-linecap="round" stroke-linejoin="round" stroke-dasharray="2 2"/>
<path d="M351.352 233.71C351.352 233.71 383.357 234.064 388.207 239.607C393.058 245.15 388.561 265.008 388.561 265.008C393.857 274.569 397.623 284.901 399.721 295.627C402.846 312.669 395.534 329.726 395.534 329.726C395.534 329.726 392.409 345.368 389.284 352.326C386.158 359.284 363.544 358.945 349.966 356.498C336.388 354.051 341.976 330.419 343.022 313.023C344.069 295.627 339.882 247.98 339.882 243.455C339.882 238.929 343.022 237.219 351.352 233.71Z" fill="white"/>
<path opacity="0.1" d="M351.352 233.71C351.352 233.71 383.357 234.064 388.207 239.607C393.058 245.15 388.561 265.008 388.561 265.008C393.857 274.569 397.623 284.901 399.721 295.627C402.846 312.669 395.534 329.726 395.534 329.726C395.534 329.726 392.409 345.368 389.284 352.326C386.158 359.284 363.544 358.945 349.966 356.498C336.388 354.051 341.976 330.419 343.022 313.023C344.069 295.627 339.882 247.98 339.882 243.455C339.882 238.929 343.022 237.219 351.352 233.71Z" fill="black"/>
<path d="M351.352 233.71C351.352 233.71 383.357 234.064 388.207 239.607C393.058 245.15 388.561 265.008 388.561 265.008C393.857 274.569 397.623 284.901 399.721 295.627C402.846 312.669 395.534 329.726 395.534 329.726C395.534 329.726 392.409 345.368 389.284 352.326C386.158 359.284 363.544 358.945 349.966 356.498C336.388 354.051 341.976 330.419 343.022 313.023C344.069 295.627 339.882 247.98 339.882 243.455C339.882 238.929 343.022 237.219 351.352 233.71Z" stroke="#263238" stroke-linecap="round" stroke-linejoin="round"/>
<path d="M388.591 265.052C388.591 265.052 370.148 270.949 356.585 272.703L356.231 266.438C356.231 266.438 384.404 264.005 389.284 259.833L388.591 265.052Z" fill="#263238" stroke="#263238" stroke-linecap="round" stroke-linejoin="round"/>
<path d="M395.579 329.755C395.579 329.755 374.025 334.62 366.359 333.927L365.667 339.824C365.667 339.824 386.895 339.47 394.547 335.991L395.579 329.755Z" fill="#263238" stroke="#263238" stroke-linecap="round" stroke-linejoin="round"/>
<path d="M307.125 350.969C307.125 350.969 259.124 346.797 247.64 350.969C236.156 355.142 234.372 369.412 234.372 379.142C234.372 388.872 227.001 432.361 226.367 434.101C225.733 435.841 218.023 451.143 220.47 454.622C222.917 458.101 244.824 454.622 248.643 450.804C252.461 446.986 262.205 404.189 265.685 393.059C267.629 386.677 270.192 380.5 273.336 374.616C273.336 374.616 318.904 393.412 342.919 386.793C366.934 380.174 358.222 363.206 344.998 356.188C331.774 349.171 307.125 350.969 307.125 350.969Z" fill="#263238" stroke="#263238" stroke-linecap="round" stroke-linejoin="round"/>
<path d="M223.36 431.329C223.36 431.329 210.829 435.147 204.578 435.147C198.327 435.147 188.922 433.054 187.521 441.752C186.121 450.45 194.141 458.809 211.875 459.841C229.61 460.873 234.49 460.548 238.308 456.715C242.127 452.882 241.448 448.017 237.615 441.752C233.782 435.486 227.178 430.975 223.36 431.329Z" fill="#E76F51" stroke="#263238" stroke-linecap="round" stroke-linejoin="round"/>
<path d="M233.797 443.492C235.068 442.935 236.262 442.216 237.35 441.355C233.488 435.31 227.104 431.035 223.36 431.33C223.36 431.33 210.829 435.148 204.578 435.148H203.605C201.114 436.077 198.062 438.185 200.052 442.814C203.178 450.111 221.266 449.065 233.797 443.492Z" fill="white" stroke="#263238" stroke-linecap="round" stroke-linejoin="round"/>
<path d="M495.723 485.242C495.723 485.242 441.456 395.491 437.977 394.798C434.498 394.105 419.889 393.413 419.889 393.413C419.889 393.413 380.232 371.845 373.274 371.845C366.315 371.845 332.924 392.012 329.445 393.413C325.966 394.813 307.184 396.892 307.184 399.663C307.184 402.435 293.916 424.725 293.916 424.725L266.776 434.47L264.697 444.907L256.338 491.507H504.008L495.723 485.242Z" fill="white"/>
<path opacity="0.21" d="M510.14 493.07L496.681 481.763L440.66 392.351L415.348 388.577C415.348 388.577 375.544 368.115 371.121 368.646C366.698 369.177 322.103 395.049 320.496 395.049C318.889 395.049 308.098 394.504 305.415 398.278C302.732 402.052 291.41 421.438 291.41 421.438L263.399 430.593L260.702 449.979L282.815 451.055L327.528 495.282H514.991L510.14 493.07Z" fill="black"/>
<path d="M406.65 416.411C413.562 416.411 419.166 412.939 419.166 408.657C419.166 404.374 413.562 400.902 406.65 400.902C399.737 400.902 394.134 404.374 394.134 408.657C394.134 412.939 399.737 416.411 406.65 416.411Z" fill="white"/>
<path d="M444.228 399.884C444.228 404.174 438.626 407.653 431.726 407.653C424.827 407.653 419.21 404.174 419.21 399.884C419.21 395.594 424.812 392.13 431.726 392.13C438.64 392.13 444.228 395.609 444.228 399.884Z" fill="white"/>
<path d="M395.578 411.65C395.578 413.448 393.338 414.908 390.581 414.908C387.824 414.908 385.568 413.433 385.568 411.65C385.568 409.866 387.809 408.406 390.581 408.406C393.352 408.406 395.578 409.851 395.578 411.65Z" fill="white"/>
<path d="M423.161 414.907C427.859 414.907 431.667 412.333 431.667 409.158C431.667 405.982 427.859 403.408 423.161 403.408C418.463 403.408 414.655 405.982 414.655 409.158C414.655 412.333 418.463 414.907 423.161 414.907Z" fill="white"/>
<path d="M418.164 418.916C418.164 421.393 414.463 423.413 409.908 423.413C405.353 423.413 401.652 421.393 401.652 418.916C401.652 416.44 405.338 414.405 409.908 414.405C414.478 414.405 418.164 416.425 418.164 418.916Z" fill="white"/>
<path d="M384.124 411.649C384.124 413.124 382.104 414.406 379.627 414.406C377.151 414.406 375.116 413.168 375.116 411.649C375.116 410.131 377.136 408.907 379.627 408.907C382.119 408.907 384.124 410.131 384.124 411.649Z" fill="white"/>
<path d="M398.144 398.396C398.144 399.222 396.566 399.87 394.635 399.87C392.704 399.87 391.141 399.207 391.141 398.396C391.141 397.585 392.704 396.922 394.635 396.922C396.566 396.922 398.144 397.556 398.144 398.396Z" fill="white"/>
<path d="M423.161 399.384C423.161 401.595 420.699 403.394 417.662 403.394C414.625 403.394 412.163 401.595 412.163 399.384C412.163 397.172 414.625 395.389 417.662 395.389C420.699 395.389 423.161 397.172 423.161 399.384Z" fill="white"/>
<path d="M412.163 397.644C412.163 398.602 410.144 399.384 407.652 399.384C405.161 399.384 403.141 398.602 403.141 397.644C403.141 396.686 405.161 395.89 407.652 395.89C410.144 395.89 412.163 396.671 412.163 397.644Z" fill="white"/>
<path d="M428.174 425.168C428.174 427.792 424.473 429.915 419.918 429.915C415.363 429.915 411.662 427.792 411.662 425.168C411.662 422.544 415.348 420.406 419.918 420.406C424.488 420.406 428.174 422.544 428.174 425.168Z" fill="white"/>
<path d="M433.171 425.419C439.53 425.419 444.685 422.059 444.685 417.915C444.685 413.771 439.53 410.411 433.171 410.411C426.812 410.411 421.657 413.771 421.657 417.915C421.657 422.059 426.812 425.419 433.171 425.419Z" fill="white"/>
<path d="M451.201 409.894C451.201 414.052 446.041 417.413 439.687 417.413C433.333 417.413 428.174 414.052 428.174 409.894C428.174 405.737 433.333 402.391 439.687 402.391C446.041 402.391 451.201 405.752 451.201 409.894Z" fill="white"/>
<path d="M364.62 419.463C364.62 421.409 362.379 422.971 359.622 422.971C356.865 422.971 354.61 421.409 354.61 419.463C354.61 417.517 356.851 415.969 359.622 415.969C362.394 415.969 364.62 417.472 364.62 419.463Z" fill="white"/>
<path d="M370.62 432.421C370.62 436.298 364.34 439.438 356.6 439.438C348.86 439.438 342.58 436.298 342.58 432.421C342.58 428.543 348.86 425.418 356.6 425.418C364.34 425.418 370.62 428.558 370.62 432.421Z" fill="white"/>
<path d="M376.62 424.666C376.62 427.615 372.816 429.915 368.114 429.915C363.411 429.915 359.607 427.571 359.607 424.666C359.607 421.762 363.411 419.403 368.114 419.403C372.816 419.403 376.62 421.762 376.62 424.666Z" fill="white"/>
<path d="M339.838 411.9C339.838 414.391 336.138 416.411 331.568 416.411C326.998 416.411 323.312 414.391 323.312 411.9C323.312 409.408 327.012 407.403 331.568 407.403C336.123 407.403 339.838 409.408 339.838 411.9Z" fill="white"/>
<path d="M330.58 420.937C330.58 422.603 327.44 423.885 323.563 423.885C319.685 423.885 316.56 422.544 316.56 420.937C316.56 419.33 319.7 417.988 323.563 417.988C327.425 417.988 330.58 419.256 330.58 420.937Z" fill="white"/>
<path d="M333.823 425.418C336.453 425.418 338.585 424.184 338.585 422.661C338.585 421.139 336.453 419.904 333.823 419.904C331.193 419.904 329.062 421.139 329.062 422.661C329.062 424.184 331.193 425.418 333.823 425.418Z" fill="white"/>
<path d="M311.548 433.423C311.548 435.915 307.125 437.934 301.788 437.934C296.452 437.934 292.029 435.915 292.029 433.423C292.029 430.932 296.452 428.927 301.788 428.927C307.125 428.927 311.548 430.932 311.548 433.423Z" fill="white"/>
<path d="M313.051 455.95C318.857 455.95 323.563 452.702 323.563 448.697C323.563 444.691 318.857 441.443 313.051 441.443C307.246 441.443 302.54 444.691 302.54 448.697C302.54 452.702 307.246 455.95 313.051 455.95Z" fill="white"/>
<path d="M319.567 434.677C319.567 436.151 317.327 437.434 314.555 437.434C311.784 437.434 309.557 436.195 309.557 434.677C309.557 433.158 311.798 431.92 314.555 431.92C317.312 431.92 319.567 433.158 319.567 434.677Z" fill="white"/>
<path d="M297.793 444.436C300.969 444.436 303.543 443.089 303.543 441.428C303.543 439.767 300.969 438.421 297.793 438.421C294.618 438.421 292.044 439.767 292.044 441.428C292.044 443.089 294.618 444.436 297.793 444.436Z" fill="white"/>
<path d="M335.578 446.942C335.578 448.873 332.629 450.436 329.076 450.436C325.523 450.436 322.56 448.873 322.56 446.942C322.56 445.011 325.509 443.434 329.076 443.434C332.644 443.434 335.578 445.011 335.578 446.942Z" fill="white"/>
<path opacity="0.1" d="M437.977 394.799L440.041 437.831L374.468 420.657L376.03 470.618L340.9 445.645L337.789 462.82L308.894 469.07L280.751 440.721L268.309 469.852L208.971 478.432L159.01 494.279H335.017L333.646 491.316L504.067 491.508L495.723 485.242L437.977 394.799Z" fill="black"/>
<path d="M495.723 485.242C495.723 485.242 441.456 395.491 437.977 394.798C434.498 394.105 419.889 393.413 419.889 393.413C419.889 393.413 380.232 371.845 373.274 371.845C366.315 371.845 332.924 392.012 329.445 393.413C325.966 394.813 307.184 396.892 307.184 399.663C307.184 402.435 293.916 424.725 293.916 424.725L266.776 434.47L264.697 444.907L256.338 491.507H504.008L495.723 485.242Z" stroke="#263238" stroke-linecap="round" stroke-linejoin="round"/>
<path opacity="0.1" d="M307.125 399.663C307.125 401.816 299.297 415.496 295.685 421.673L323.902 408.405L380.836 405.885L400.886 397.481H419.653L422.852 393.56L419.903 393.413C419.903 393.413 380.247 371.845 373.288 371.845C366.33 371.845 332.939 392.012 329.46 393.413C325.98 394.813 307.125 396.892 307.125 399.663Z" fill="black"/>
<path d="M293.975 424.71H317.622L352.413 456.715L351.706 478.976L328.752 490.799" stroke="#263238" stroke-linecap="round" stroke-linejoin="round"/>
<path d="M329.784 434.985L360.065 412.193L405.279 438.626L425.461 492.199" stroke="#263238" stroke-linecap="round" stroke-linejoin="round"/>
<path d="M405.279 438.627L396.935 466.46L363.544 475.497L352.413 467.846" stroke="#263238" stroke-linecap="round" stroke-linejoin="round"/>
<path d="M363.544 475.497L364.929 491.492" stroke="#263238" stroke-linecap="round" stroke-linejoin="round"/>
<path d="M396.935 466.461L407.372 490.8" stroke="#263238" stroke-linecap="round" stroke-linejoin="round"/>
<path d="M370.148 349.923C370.148 349.923 370.841 367.614 367.362 375.324C363.883 383.034 358.664 386.793 338.497 388.194C318.329 389.594 291.189 379.835 291.189 379.835C291.189 379.835 276.579 404.543 270.668 415.319C264.756 426.096 253.965 438.273 250.839 442.46C247.714 446.647 244.22 452.883 240.048 454.976C235.876 457.069 226.131 444.539 224.392 440.013C222.652 435.487 221.266 432.361 221.62 430.283C221.974 428.204 229.61 424.71 229.61 424.71C229.61 424.71 241.404 402.449 247.006 393.412C252.608 384.375 256.751 365.933 261.616 359.314C266.481 352.694 277.626 348.876 291.528 349.584C305.43 350.291 328.059 353.122 333.971 353.122C339.882 353.122 370.148 349.923 370.148 349.923Z" fill="#263238" stroke="#263238" stroke-linecap="round" stroke-linejoin="round"/>
<path d="M234.888 415.54C240.579 405.412 250.176 387.987 252.933 380.822C256.928 370.429 261.336 361.657 261.336 361.657" stroke="white" stroke-width="0.75" stroke-linecap="round" stroke-linejoin="round"/>
<path d="M230.539 423.177C230.539 423.177 231.217 422.012 232.308 420.081" stroke="white" stroke-width="0.75" stroke-linecap="round" stroke-linejoin="round"/>
<path d="M315.97 265.863C315.97 265.863 309.248 274.443 307.39 281.402C305.533 288.36 298.81 312.935 297.425 314.793C296.039 316.65 291.616 322.916 287.444 325.923C283.272 328.931 269.459 334.444 264.358 338.852C259.257 343.26 261.704 345.398 259.626 348.877C257.547 352.356 266.997 354.449 269.12 354.449C271.242 354.449 286.515 353.521 295.095 350.513C303.675 347.506 317.135 330.567 317.592 329.638C318.049 328.709 320.54 313.422 321.307 295.731C322.074 278.04 324.816 265.863 315.97 265.863Z" fill="#E76F51"/>
<path opacity="0.2" d="M322.265 278.924C322.118 277.701 322.03 276.993 322.03 276.993L313.405 283.716C310.778 288.164 309.56 293.304 309.911 298.458C310.354 307.583 312.521 313.687 311.223 313.687C309.926 313.687 305.562 308.453 305.562 313.687C305.562 318.92 308.614 322.812 309.484 325.864C310.354 328.915 298.604 315.854 299.916 320.203C301.228 324.552 306.875 329.785 306.432 332.395C305.99 335.004 299.061 323.254 296.422 326.306C293.783 329.358 295.995 334.562 293.385 335.431C291.203 336.169 272.938 349.643 271.036 354.316C275.857 354.051 287.887 352.989 295.125 350.454C303.705 347.432 317.165 330.508 317.622 329.579C318.079 328.65 320.57 313.362 321.337 295.672C321.587 289.332 322.118 283.598 322.265 278.924Z" fill="black"/>
<path d="M315.97 265.863C315.97 265.863 309.248 274.443 307.39 281.402C305.533 288.36 298.81 312.935 297.425 314.793C296.039 316.65 291.616 322.916 287.444 325.923C283.272 328.931 269.459 334.444 264.358 338.852C259.257 343.26 261.704 345.398 259.626 348.877C257.547 352.356 266.997 354.449 269.12 354.449C271.242 354.449 286.515 353.521 295.095 350.513C303.675 347.506 317.135 330.567 317.592 329.638C318.049 328.709 320.54 313.422 321.307 295.731C322.074 278.04 324.816 265.863 315.97 265.863Z" stroke="#263238" stroke-linecap="round" stroke-linejoin="round"/>
<path d="M313.258 328.871C313.258 328.871 300.874 314.881 300.476 318.08C300.078 321.279 308.865 328.871 308.865 332.468C308.865 336.065 296.083 322.075 294.874 326.07C294.558 327.185 294.67 328.378 295.188 329.415C295.707 330.451 296.594 331.256 297.675 331.672" stroke="#263238" stroke-linecap="round" stroke-linejoin="round"/>
<path d="M271.552 339.603C271.552 339.603 264.387 336.965 261.365 339.603C258.343 342.242 247.021 351.677 251.562 354.346C256.102 357.014 264.21 357.073 267.026 354.729C268.634 353.372 270.414 352.232 272.319 351.338C272.319 351.338 271.184 355.481 274.958 353.225C278.732 350.97 282.122 343.407 279.852 341.52C277.582 339.633 271.552 339.603 271.552 339.603Z" fill="#263238" stroke="#263238" stroke-linecap="round" stroke-linejoin="round"/>
<path d="M313.228 264.669C312.232 273.759 311.774 282.9 311.857 292.045C312.255 303.839 314.408 327.072 312.064 334.502C309.72 341.933 309.911 348.581 314.408 351.53C318.904 354.478 339.47 357.78 352.354 356.026C365.239 354.272 372.905 352.105 373.686 347.181C374.468 342.257 375.057 299.829 372.699 284.379C370.34 268.929 365.667 254.452 360.905 249.749C356.143 245.047 351.322 246.801 339.381 251.518C327.44 256.236 316.56 259.966 313.228 264.669Z" fill="#E76F51" stroke="#263238" stroke-linecap="round" stroke-linejoin="round"/>
<path d="M338.084 286.959C338.084 286.959 326.953 293.917 311.297 286.959C311.297 286.959 310.604 294.33 311.651 294.33C316.502 295.787 321.549 296.488 326.614 296.409C336.698 296.409 340.516 293.976 340.516 293.976L338.084 286.959Z" fill="#263238" stroke="#263238" stroke-linecap="round" stroke-linejoin="round"/>
<path d="M337.096 261.572C337.096 261.572 332.585 272.703 333.617 282.786C334.649 292.87 338.143 301.229 348.226 301.229C358.31 301.229 366.669 279.307 367.023 267.13C367.377 254.953 363.19 249.749 353.445 249.749C343.701 249.749 337.096 261.572 337.096 261.572Z" fill="#263238" stroke="#263238" stroke-linecap="round" stroke-linejoin="round"/>
<path d="M311.282 262.31C311.282 262.31 317.179 274.103 318.653 276.403C320.128 278.703 320.408 277.774 321.97 276.993C323.533 276.212 352.104 251.563 354.654 250.575C357.204 249.587 362.276 251.946 362.674 249.41C363.072 246.875 352.104 231.012 348.978 228.476C345.853 225.941 339.587 235.508 338.025 236.29C336.462 237.071 335.872 236.29 333.13 236.879C330.388 237.469 316.368 255.071 311.282 262.31Z" fill="#E76F51"/>
<path opacity="0.2" d="M349.037 228.476C345.897 225.926 339.646 235.508 338.084 236.29C336.521 237.071 335.931 236.29 333.189 236.879C331.597 237.219 326.143 243.351 320.865 249.838L323.813 266.423C323.813 266.423 337.361 260.157 341.283 258.167C337.573 261.843 334.093 265.742 330.86 269.843C339.956 262.236 352.973 251.224 354.728 250.575C357.263 249.602 362.35 251.946 362.748 249.41C363.146 246.875 352.163 231.012 349.037 228.476Z" fill="black"/>
<path d="M311.282 262.31C311.282 262.31 317.179 274.103 318.653 276.403C320.128 278.703 320.408 277.774 321.97 276.993C323.533 276.212 352.104 251.563 354.654 250.575C357.204 249.587 362.276 251.946 362.674 249.41C363.072 246.875 352.104 231.012 348.978 228.476C345.853 225.941 339.587 235.508 338.025 236.29C336.462 237.071 335.872 236.29 333.13 236.879C330.388 237.469 316.368 255.071 311.282 262.31Z" stroke="#263238" stroke-linecap="round" stroke-linejoin="round"/>
<path d="M332.791 251.4C332.791 251.4 351.617 238.206 345.234 238.206C338.85 238.206 338.039 246.196 338.039 246.196" stroke="#263238" stroke-linecap="round" stroke-linejoin="round"/>
<path d="M317.341 261.146L323.799 266.423C327.064 261.566 330.066 256.537 332.791 251.357L329.474 240.403L317.341 261.146Z" fill="white"/>
<path d="M317.341 261.146L323.799 266.423C327.064 261.566 330.066 256.537 332.791 251.357L329.474 240.403L317.341 261.146Z" fill="#E76F51"/>
<path opacity="0.5" d="M317.341 261.146L323.799 266.423C327.064 261.566 330.066 256.537 332.791 251.357L329.474 240.403L317.341 261.146Z" fill="white"/>
<path d="M317.341 261.146L323.799 266.423C327.064 261.566 330.066 256.537 332.791 251.357L329.474 240.403L317.341 261.146Z" stroke="#263238" stroke-linecap="round" stroke-linejoin="round"/>
<path d="M296.805 206.879C293.502 211.087 291.692 216.273 291.66 221.622C291.66 231.411 295.965 246.079 298.899 252.138C301.833 258.197 309.218 266.615 312.786 266.88C316.354 267.146 325.111 253.612 326.865 250.251C327.858 248.476 328.583 246.563 329.017 244.575C329.017 244.575 334.103 242.231 333.514 232.782C332.924 223.332 329.209 209.297 330.197 206.953C331.184 204.609 335.666 200.113 334.693 198.535C333.72 196.958 331.745 198.152 329.607 199.317C327.469 200.481 319.287 198.742 313.169 199.317C309.103 199.724 305.156 200.926 301.552 202.855C299.727 203.879 298.115 205.246 296.805 206.879Z" fill="white"/>
<path d="M313.273 266.747C317.032 265.981 325.229 253.391 326.924 250.192C327.917 248.416 328.642 246.504 329.076 244.516C329.076 244.516 334.162 242.172 333.573 232.722C332.983 223.272 329.268 209.238 330.256 206.894C331.243 204.55 335.725 200.053 334.752 198.476C334.564 198.167 334.275 197.931 333.935 197.808C333.595 197.685 333.222 197.681 332.88 197.798C327.51 201.756 322.635 206.344 318.359 211.464C312.344 219.233 318.005 230.187 318.005 230.187C318.005 230.187 321.882 240.079 321.174 247.14C320.599 252.875 316.766 261.47 313.273 266.747Z" fill="#E76F51"/>
<path opacity="0.5" d="M313.273 266.747C317.032 265.981 325.229 253.391 326.924 250.192C327.917 248.416 328.642 246.504 329.076 244.516C329.076 244.516 334.162 242.172 333.573 232.722C332.983 223.272 329.268 209.238 330.256 206.894C331.243 204.55 335.725 200.053 334.752 198.476C334.564 198.167 334.275 197.931 333.935 197.808C333.595 197.685 333.222 197.681 332.88 197.798C327.51 201.756 322.635 206.344 318.359 211.464C312.344 219.233 318.005 230.187 318.005 230.187C318.005 230.187 321.882 240.079 321.174 247.14C320.599 252.875 316.766 261.47 313.273 266.747Z" fill="white"/>
<path d="M296.805 206.879C293.502 211.087 291.692 216.273 291.66 221.622C291.66 231.411 295.965 246.079 298.899 252.138C301.833 258.197 309.218 266.615 312.786 266.88C316.354 267.146 325.111 253.612 326.865 250.251C327.858 248.476 328.583 246.563 329.017 244.575C329.017 244.575 334.103 242.231 333.514 232.782C332.924 223.332 329.209 209.297 330.197 206.953C331.184 204.609 335.666 200.113 334.693 198.535C333.72 196.958 331.745 198.152 329.607 199.317C327.469 200.481 319.287 198.742 313.169 199.317C309.103 199.724 305.156 200.926 301.552 202.855C299.727 203.879 298.115 205.246 296.805 206.879V206.879Z" stroke="#263238" stroke-linecap="round" stroke-linejoin="round"/>
<path d="M302.466 237.867C302.335 239.686 301.73 241.44 300.712 242.953C299.149 244.899 299.931 246.27 302.275 246.079C303.651 245.978 304.956 245.429 305.99 244.516" stroke="#263238" stroke-linecap="round" stroke-linejoin="round"/>
<path d="M302.083 229.641C302.083 229.641 286.619 232.059 285.248 234.418C283.877 236.777 293.459 245.578 296.408 244C299.356 242.423 301.494 236.497 303.779 236.629C306.064 236.762 311.017 241.524 315.322 240.742C319.627 239.961 324.713 229.981 324.329 228.02C323.946 226.059 306.978 228.477 302.083 229.641Z" fill="#263238" stroke="#263238" stroke-linecap="round" stroke-linejoin="round"/>
<path d="M310.973 233.047C303.174 229.405 300.565 233.047 294.845 237.735C293.18 239.046 291.306 240.068 289.302 240.757C291.882 243.012 294.948 244.781 296.408 244C299.356 242.437 301.494 236.496 303.779 236.629C306.064 236.762 311.017 241.523 315.322 240.742C317.681 240.314 320.26 237.13 322.059 234.02C318.346 234.759 314.5 234.421 310.973 233.047Z" fill="#E76F51" stroke="#263238" stroke-linecap="round" stroke-linejoin="round"/>
<path d="M304.177 250.192C306.126 250.711 308.187 250.613 310.078 249.91C311.969 249.208 313.595 247.936 314.732 246.271" stroke="#263238" stroke-linecap="round" stroke-linejoin="round"/>
<path d="M324.388 225.734C324.388 225.734 326.334 235.125 325.759 237.278C325.184 239.43 327.322 237.867 328.103 234.152C328.511 232.478 328.772 230.771 328.885 229.051C327.705 227.568 326.154 226.424 324.388 225.734Z" fill="#E76F51" stroke="#263238" stroke-linecap="round" stroke-linejoin="round"/>
<path d="M334.752 198.535C333.779 196.972 331.804 198.151 329.666 199.316C327.528 200.481 319.346 198.741 313.228 199.316C309.162 199.723 305.215 200.926 301.611 202.854C299.764 203.873 298.132 205.239 296.805 206.879C293.502 211.086 291.692 216.272 291.66 221.621C291.683 223.871 291.855 226.117 292.176 228.343C297.749 224.319 313.066 216.638 333.543 233.798C333.543 233.459 333.543 233.135 333.543 232.781C332.968 223.39 329.238 209.297 330.226 206.952C331.214 204.608 335.725 200.112 334.752 198.535Z" fill="#263238"/>
<path d="M310.25 202.399C315.764 201.396 317.74 202.089 318.432 202.59C318.592 202.707 318.726 202.854 318.828 203.024C318.929 203.194 318.995 203.382 319.022 203.578C319.479 207.249 323.076 207.249 327.234 207.249C328.301 207.27 329.322 207.691 330.094 208.428C330.052 207.931 330.107 207.43 330.256 206.954C330.256 206.865 330.344 206.777 330.388 206.674C329.46 206.035 328.361 205.69 327.234 205.686C322.929 205.686 320.835 205.583 320.57 203.386C320.522 202.979 320.39 202.587 320.182 202.234C319.973 201.881 319.694 201.576 319.361 201.337C317.754 200.158 314.673 199.996 309.97 200.851C307.98 201.219 307.435 201.027 306.771 200.688C306.005 200.924 305.297 201.19 304.531 201.484C305.041 201.609 305.536 201.792 306.005 202.03C307.32 202.695 308.841 202.827 310.25 202.399Z" fill="#E76F51"/>
<path d="M331.671 226.62C329.268 221.239 327.808 221.047 325.066 221.902L324.418 222.094C322 222.787 319.45 223.185 317.047 219.794C314.644 216.403 310.575 216.123 305.931 219.219C303.572 220.796 302.85 220.531 300.712 219.779C300.152 219.573 299.518 219.352 298.766 219.116C296.201 218.349 293.489 220.443 291.705 222.271C291.705 222.978 291.705 223.745 291.808 224.482C293.371 222.61 296.231 219.971 298.309 220.62C299.046 220.841 299.651 221.047 300.196 221.239C301.241 221.793 302.427 222.02 303.602 221.891C304.777 221.762 305.887 221.283 306.786 220.516C309.543 218.688 313.346 217.214 315.779 220.693C318.595 224.718 321.926 224.423 324.816 223.642L325.494 223.435C327.41 222.846 328.118 222.624 330.226 227.313C330.929 229.03 332.043 230.549 333.469 231.735C333.469 230.939 333.322 230.128 333.219 229.273C332.599 228.454 332.079 227.563 331.671 226.62Z" fill="#E76F51"/>
<path d="M327.926 199.7C327.293 199.738 326.658 199.738 326.025 199.7C326.75 200.766 327.692 201.666 328.79 202.342C329.887 203.018 331.115 203.454 332.393 203.622C332.732 203.15 333.086 202.663 333.396 202.147C331.345 201.986 329.413 201.121 327.926 199.7Z" fill="#E76F51"/>
<path d="M297.823 211.715C298.542 211.652 299.258 211.862 299.828 212.305C300.786 212.968 301.626 213.337 304.398 212.423C305.548 212.039 306.624 211.568 307.656 211.125C310.929 209.651 312.86 208.973 314.364 210.698C317.076 213.794 318.786 214.693 322.03 214.693H323.725C326.57 214.575 328.472 214.605 329.135 216.167C329.734 217.428 330.611 218.537 331.7 219.411C331.538 218.467 331.376 217.553 331.214 216.654C330.956 216.311 330.738 215.94 330.565 215.548C329.43 212.924 326.364 213.057 323.666 213.175H322.03C319.435 213.175 318.123 212.673 315.543 209.725C313.199 207.057 310.206 208.354 307.037 209.725C306.034 210.152 304.987 210.609 303.911 210.963C301.67 211.715 301.272 211.435 300.712 211.052C299.865 210.419 298.819 210.11 297.764 210.182C296.298 210.322 294.912 210.914 293.798 211.877C293.348 212.881 292.969 213.916 292.663 214.973C294.285 213.351 296.29 211.715 297.823 211.715Z" fill="#E76F51"/>
<path d="M334.752 198.535C333.779 196.972 331.804 198.151 329.666 199.316C327.528 200.481 319.346 198.741 313.228 199.316C309.162 199.723 305.215 200.926 301.611 202.854C299.764 203.873 298.132 205.239 296.805 206.879C293.502 211.086 291.692 216.272 291.66 221.621C291.683 223.871 291.855 226.117 292.176 228.343C297.749 224.319 313.066 216.638 333.543 233.798C333.543 233.459 333.543 233.135 333.543 232.781C332.968 223.39 329.238 209.297 330.226 206.952C331.214 204.608 335.725 200.112 334.752 198.535Z" stroke="#263238" stroke-linecap="round" stroke-linejoin="round"/>
<path d="M296.805 337.746C293.201 337.469 289.632 336.847 286.147 335.888C281.724 334.503 279.424 333.574 276.874 335.431C274.324 337.289 268.029 347.225 267.586 349.348C267.144 351.471 269.061 353.063 269.916 352.296C270.771 351.53 278.761 346.046 278.761 346.046C280.831 347.787 283.304 348.983 285.955 349.525C288.175 349.791 290.414 349.206 292.221 347.889L296.643 348.596L296.805 337.746Z" fill="#263238" stroke="#263238" stroke-linecap="round" stroke-linejoin="round"/>
<path d="M362.836 257.518C362.836 257.518 357.042 251.71 346.62 260.29C336.197 268.87 339.248 285.809 339.44 292.723C339.632 299.637 342.212 317.298 342.212 321.013V327.043C342.212 327.043 328.531 333.072 323.209 334.694C317.887 336.316 307.435 336.551 305.12 337.008C302.806 337.465 296.997 334.93 295.611 337.48C294.226 340.031 291.439 349.761 295.14 351.382C298.84 353.004 317.4 353.24 330.388 353.24C343.376 353.24 363.322 349.996 367.966 347.21C372.61 344.424 371.667 328.428 371.667 317.534C371.667 306.639 371.431 282.521 369.588 272.541C367.745 262.56 364.694 259.376 362.836 257.518Z" fill="#E76F51"/>
<path opacity="0.2" d="M369.573 272.585C367.716 262.62 364.694 259.317 362.836 257.519C362.836 257.519 359.666 254.364 353.814 256.177L353.43 256.737C353.43 256.737 362.571 258.049 360.802 261.956C359.032 265.863 343.833 278.055 343.833 278.055C343.833 278.055 352.531 272.836 360.359 272.408C368.187 271.981 363.411 277.185 359.062 278.055C354.713 278.924 371.239 280.237 364.708 281.976C358.177 283.716 351.661 281.106 354.698 285.455C357.735 289.804 369.942 291.116 366.492 295.465C363.042 299.814 351.75 304.163 354.315 310.694C356.88 317.225 368.674 315.913 368.674 319.834C368.674 323.756 365.622 325.495 359.976 326.365C354.33 327.235 370.089 328.001 366.33 333.928C362.571 339.854 358.236 331.142 351.263 335.49C344.29 339.839 340.826 347.682 330.816 348.552C320.806 349.422 312.978 348.552 305.15 351.161C303.675 351.633 302.319 352.075 300.978 352.459C308.452 353.166 320.894 353.284 330.462 353.284C343.45 353.284 363.396 350.041 368.04 347.255C372.684 344.468 371.74 328.473 371.74 317.579C371.74 306.684 371.416 282.566 369.573 272.585Z" fill="black"/>
<path d="M362.836 257.518C362.836 257.518 357.042 251.71 346.62 260.29C336.197 268.87 339.248 285.809 339.44 292.723C339.632 299.637 342.212 317.298 342.212 321.013V327.043C342.212 327.043 328.531 333.072 323.209 334.694C317.887 336.316 307.435 336.551 305.12 337.008C302.806 337.465 296.997 334.93 295.611 337.48C294.226 340.031 291.439 349.761 295.14 351.382C298.84 353.004 317.4 353.24 330.388 353.24C343.376 353.24 363.322 349.996 367.966 347.21C372.61 344.424 371.667 328.428 371.667 317.534C371.667 306.639 371.431 282.521 369.588 272.541C367.745 262.56 364.694 259.376 362.836 257.518Z" stroke="#263238" stroke-linecap="round" stroke-linejoin="round"/>
<path d="M345.234 327.677C345.234 327.677 356.025 328.075 362.01 335.269" stroke="#263238" stroke-linecap="round" stroke-linejoin="round"/>
<path d="M345.632 326.07C345.632 326.07 356.025 322.871 361.612 325.274C367.2 327.677 372.404 323.667 363.219 320.482C354.035 317.298 346.664 321.057 344.438 324.08" stroke="#263238" stroke-linecap="round" stroke-linejoin="round"/>
<path d="M363.219 268.133C363.219 268.133 360.02 264.536 350.025 272.556C340.03 280.576 342.433 285.338 348.831 282.139C355.229 278.939 366.404 274.959 367.214 279.75C368.025 284.542 356.025 282.139 358.369 284.94C360.713 287.741 366.359 287.741 366.359 287.741" stroke="#263238" stroke-linecap="round" stroke-linejoin="round"/>
<path d="M302.776 354.685H231.822V357.928H302.776V354.685Z" fill="white" stroke="#263238" stroke-linecap="round" stroke-linejoin="round"/>
<path d="M270.55 354.685H231.822V357.928H270.55V354.685Z" fill="white" stroke="#263238" stroke-linecap="round" stroke-linejoin="round"/>
<path d="M231.822 354.685L216.047 319.657H258.49L270.55 354.685H231.822Z" fill="white" stroke="#263238" stroke-linecap="round" stroke-linejoin="round"/>
<path d="M328.752 490.8C328.752 490.8 284.923 440.677 280.751 440.677C276.579 440.677 178.484 459.458 175.005 464.264C171.526 469.07 159.01 494.176 159.01 494.176H335.017L328.752 490.8Z" fill="white"/>
<path opacity="0.21" d="M283.921 437.595L332.393 488.75L341.563 496.829L153.039 495.753L174.592 460.74L276.918 437.035C276.918 437.035 279.115 435.973 283.921 437.595Z" fill="black"/>
<path d="M280.589 449.668C280.589 451.482 277.641 452.941 273.94 452.941C270.24 452.941 267.306 451.467 267.306 449.668C267.306 447.87 270.255 446.396 273.94 446.396C277.626 446.396 280.589 447.855 280.589 449.668Z" fill="white"/>
<path d="M240.977 470.956C240.977 475.659 235.832 479.477 229.478 479.477C223.124 479.477 217.964 475.659 217.964 470.956C217.964 466.254 223.109 462.45 229.478 462.45C235.846 462.45 240.977 466.268 240.977 470.956Z" fill="white"/>
<path d="M277.523 458.455C277.523 463.143 272.363 466.961 266.009 466.961C259.655 466.961 254.495 463.143 254.495 458.455C254.495 453.767 259.655 449.934 266.009 449.934C272.363 449.934 277.523 453.752 277.523 458.455Z" fill="white"/>
<path d="M250.987 462.951C250.987 465.443 248.186 467.463 244.736 467.463C241.286 467.463 238.485 465.443 238.485 462.951C238.485 460.46 241.286 458.455 244.736 458.455C248.186 458.455 250.987 460.46 250.987 462.951Z" fill="white"/>
<path d="M251.989 458.455C255.441 458.455 258.24 456.435 258.24 453.944C258.24 451.452 255.441 449.433 251.989 449.433C248.537 449.433 245.738 451.452 245.738 453.944C245.738 456.435 248.537 458.455 251.989 458.455Z" fill="white"/>
<path d="M242.731 461.094C246.183 461.094 248.982 459.074 248.982 456.582C248.982 454.091 246.183 452.071 242.731 452.071C239.279 452.071 236.48 454.091 236.48 456.582C236.48 459.074 239.279 461.094 242.731 461.094Z" fill="white"/>
<path d="M192.681 472.961C192.681 475.453 189.88 477.472 186.43 477.472C182.981 477.472 180.165 475.453 180.165 472.961C180.165 470.47 182.966 468.465 186.43 468.465C189.895 468.465 192.681 470.47 192.681 472.961Z" fill="white"/>
<path d="M207.954 465.458C207.954 467.389 205.256 468.966 201.939 468.966C198.622 468.966 195.939 467.389 195.939 465.458C195.939 463.527 198.622 461.949 201.939 461.949C205.256 461.949 207.954 463.527 207.954 465.458Z" fill="white"/>
<path opacity="0.1" d="M309.263 468.981L308.894 469.069L280.751 440.72L268.309 469.85L208.971 478.43L159.01 494.278H335.017L328.752 490.799C328.752 490.799 319.597 480.347 309.263 468.981Z" fill="black"/>
<path d="M328.752 490.8C328.752 490.8 284.923 440.677 280.751 440.677C276.579 440.677 178.484 459.458 175.005 464.264C171.526 469.07 159.01 494.176 159.01 494.176H335.017L328.752 490.8Z" stroke="#263238" stroke-linecap="round" stroke-linejoin="round"/>
</svg>
