<svg width="43" height="43" viewBox="0 0 43 43" fill="none" xmlns="http://www.w3.org/2000/svg">
<g filter="url(#filter0_d)">
<rect x="3" y="4" width="35" height="35" rx="9" fill="#5D6B05"/>
</g>
<g filter="url(#filter1_d)">
<path d="M14.628 26.108C13.836 26.108 13.272 25.901 12.936 25.487C12.606 25.067 12.441 24.464 12.441 23.678V21.05C12.441 20.246 12.606 19.64 12.936 19.232C13.266 18.818 13.83 18.611 14.628 18.611C15.39 18.611 15.93 18.794 16.248 19.16C16.566 19.526 16.725 20.045 16.725 20.717V21.347H15.15V20.618C15.15 20.336 15.12 20.12 15.06 19.97C15 19.82 14.856 19.745 14.628 19.745C14.4 19.745 14.25 19.826 14.178 19.988C14.106 20.144 14.07 20.363 14.07 20.645V24.074C14.07 24.362 14.106 24.584 14.178 24.74C14.256 24.89 14.406 24.965 14.628 24.965C14.85 24.965 14.991 24.89 15.051 24.74C15.117 24.584 15.15 24.362 15.15 24.074V23.309H16.725V23.939C16.725 24.623 16.566 25.157 16.248 25.541C15.93 25.919 15.39 26.108 14.628 26.108ZM19.8163 26.108C19.1203 26.108 18.6013 25.925 18.2593 25.559C17.9233 25.187 17.7433 24.599 17.7193 23.795L19.0963 23.588C19.1023 24.05 19.1563 24.383 19.2583 24.587C19.3663 24.785 19.5253 24.884 19.7353 24.884C20.0053 24.884 20.1403 24.707 20.1403 24.353C20.1403 24.071 20.0743 23.828 19.9423 23.624C19.8163 23.42 19.6153 23.201 19.3393 22.967L18.7093 22.418C18.3973 22.154 18.1543 21.875 17.9803 21.581C17.8123 21.281 17.7283 20.927 17.7283 20.519C17.7283 19.907 17.9083 19.436 18.2683 19.106C18.6343 18.776 19.1353 18.611 19.7713 18.611C20.4613 18.611 20.9293 18.812 21.1753 19.214C21.4273 19.616 21.5623 20.105 21.5803 20.681L20.1943 20.852C20.1823 20.474 20.1463 20.204 20.0863 20.042C20.0323 19.874 19.9093 19.79 19.7173 19.79C19.5793 19.79 19.4713 19.85 19.3933 19.97C19.3213 20.084 19.2853 20.213 19.2853 20.357C19.2853 20.603 19.3393 20.81 19.4473 20.978C19.5613 21.146 19.7413 21.338 19.9873 21.554L20.5903 22.085C20.9503 22.391 21.2293 22.715 21.4273 23.057C21.6253 23.399 21.7243 23.804 21.7243 24.272C21.7243 24.614 21.6433 24.926 21.4813 25.208C21.3253 25.484 21.1033 25.703 20.8153 25.865C20.5273 26.027 20.1943 26.108 19.8163 26.108ZM24.5687 26.108C23.8727 26.108 23.3537 25.925 23.0117 25.559C22.6757 25.187 22.4957 24.599 22.4717 23.795L23.8487 23.588C23.8547 24.05 23.9087 24.383 24.0107 24.587C24.1187 24.785 24.2777 24.884 24.4877 24.884C24.7577 24.884 24.8927 24.707 24.8927 24.353C24.8927 24.071 24.8267 23.828 24.6947 23.624C24.5687 23.42 24.3677 23.201 24.0917 22.967L23.4617 22.418C23.1497 22.154 22.9067 21.875 22.7327 21.581C22.5647 21.281 22.4807 20.927 22.4807 20.519C22.4807 19.907 22.6607 19.436 23.0207 19.106C23.3867 18.776 23.8877 18.611 24.5237 18.611C25.2137 18.611 25.6817 18.812 25.9277 19.214C26.1797 19.616 26.3147 20.105 26.3327 20.681L24.9467 20.852C24.9347 20.474 24.8987 20.204 24.8387 20.042C24.7847 19.874 24.6617 19.79 24.4697 19.79C24.3317 19.79 24.2237 19.85 24.1457 19.97C24.0737 20.084 24.0377 20.213 24.0377 20.357C24.0377 20.603 24.0917 20.81 24.1997 20.978C24.3137 21.146 24.4937 21.338 24.7397 21.554L25.3427 22.085C25.7027 22.391 25.9817 22.715 26.1797 23.057C26.3777 23.399 26.4767 23.804 26.4767 24.272C26.4767 24.614 26.3957 24.926 26.2337 25.208C26.0777 25.484 25.8557 25.703 25.5677 25.865C25.2797 26.027 24.9467 26.108 24.5687 26.108Z" fill="white"/>
</g>
<defs>
<filter id="filter0_d" x="0" y="0" width="43" height="43" filterUnits="userSpaceOnUse" color-interpolation-filters="sRGB">
<feFlood flood-opacity="0" result="BackgroundImageFix"/>
<feColorMatrix in="SourceAlpha" type="matrix" values="0 0 0 0 0 0 0 0 0 0 0 0 0 0 0 0 0 0 127 0"/>
<feOffset dx="1"/>
<feGaussianBlur stdDeviation="2"/>
<feColorMatrix type="matrix" values="0 0 0 0 0.364706 0 0 0 0 0.419608 0 0 0 0 0.0196078 0 0 0 1 0"/>
<feBlend mode="normal" in2="BackgroundImageFix" result="effect1_dropShadow"/>
<feBlend mode="normal" in="SourceGraphic" in2="effect1_dropShadow" result="shape"/>
</filter>
<filter id="filter1_d" x="12.441" y="17.6113" width="16.0357" height="9.497" filterUnits="userSpaceOnUse" color-interpolation-filters="sRGB">
<feFlood flood-opacity="0" result="BackgroundImageFix"/>
<feColorMatrix in="SourceAlpha" type="matrix" values="0 0 0 0 0 0 0 0 0 0 0 0 0 0 0 0 0 0 127 0"/>
<feOffset dx="1"/>
<feGaussianBlur stdDeviation="0.5"/>
<feColorMatrix type="matrix" values="0 0 0 0 0 0 0 0 0 0 0 0 0 0 0 0 0 0 0.25 0"/>
<feBlend mode="normal" in2="BackgroundImageFix" result="effect1_dropShadow"/>
<feBlend mode="normal" in="SourceGraphic" in2="effect1_dropShadow" result="shape"/>
</filter>
</defs>
</svg>
