<svg width="124" height="124" viewBox="0 0 124 124" fill="none" xmlns="http://www.w3.org/2000/svg">
<g clip-path="url(#clip0)">
<path d="M49.8 29.0319C52.9 27.7319 54.2 24.0319 52.8 21.0319L47.9 10.7319C46.5 7.83295 43.1 6.53195 40.1 7.83295C31.6 11.4329 24.3 16.1329 18.5 21.8329C11.4 28.5319 6.6 36.2319 4 44.7319C1.4 53.3329 0 65.0319 0 79.9319V110.632C0 113.932 2.7 116.632 6 116.632H45.3C48.6 116.632 51.3 113.932 51.3 110.632V71.3319C51.3 68.0309 48.6 65.3319 45.3 65.3319H26.5C26.7 55.2309 29.1 47.1319 33.5 41.0309C37.1 36.1329 42.5 32.1329 49.8 29.0319Z" fill="white" fill-opacity="0.2"/>
<path d="M120.4 29.0321C123.5 27.7321 124.799 24.0321 123.4 21.0321L118.5 10.8331C117.1 7.93308 113.7 6.63309 110.7 7.93308C102.3 11.5331 95.099 16.2331 89.2 21.8331C82.099 28.6331 77.2 36.3331 74.599 44.8331C71.999 53.2321 70.7 64.9331 70.7 79.9331V110.633C70.7 113.933 73.4 116.633 76.7 116.633H116C119.3 116.633 122 113.933 122 110.633V71.3331C122 68.0321 119.3 65.3331 116 65.3331H97.1C97.3 55.2321 99.701 47.1331 104.1 41.0321C107.7 36.1331 113.1 32.1331 120.4 29.0321Z" fill="white" fill-opacity="0.2"/>
</g>
<defs>
<clipPath id="clip0">
<rect width="123.961" height="123.961" fill="white"/>
</clipPath>
</defs>
</svg>
