<svg width="1920" height="1080" viewBox="0 0 1920 1080" fill="none" xmlns="http://www.w3.org/2000/svg">
<g clip-path="url(#clip0)">
<rect width="1920" height="1080" fill="url(#paint0_linear)"/>
<path d="M1203.53 341.724C1403.8 177.662 1107.05 56.823 1004.11 -14H1970V1080H1584.12H1203.53C1203.53 1080 1182.19 1080 1072.94 933.525C838.817 619.651 1047.64 469.42 1203.53 341.724Z" fill="url(#paint1_linear)" fill-opacity="0.9"/>
<path d="M1153.76 339.025C1354.24 174.363 1057.19 53.0819 954.149 -18H1921V1080H1534.73H1153.76C1153.76 1080 1132.41 1080 1023.04 932.99C788.689 617.968 997.721 467.188 1153.76 339.025Z" fill="url(#paint2_linear)" fill-opacity="0.54"/>
<path d="M1087.98 322.154C1302.25 153.743 984.769 29.7003 874.635 -43H1908V1080H1495.16H1087.98C1087.98 1080 1065.16 1080 948.267 929.642C697.793 607.448 921.206 453.235 1087.98 322.154Z" fill="url(#paint3_linear)" fill-opacity="0.3"/>
<rect x="82.4137" y="788" width="161" height="161" rx="20" transform="rotate(17.5 82.4137 788)" fill="#CAFFBF" fill-opacity="0.2"/>
<circle cx="388.5" cy="672.5" r="80.5" fill="#D90429" fill-opacity="0.1"/>
<path fill-rule="evenodd" clip-rule="evenodd" d="M457.374 824.308C483.707 827.029 495.157 856.944 514.892 874.588C536.94 894.3 576.333 902.576 577.947 932.106C579.563 961.667 543.92 976.892 521.544 996.276C501.7 1013.47 483.583 1038.1 457.374 1036.56C431.717 1035.05 415.39 1009.97 400.349 989.131C388.2 972.298 384.21 952.747 381.99 932.106C379.361 907.671 372.515 881.473 386.6 861.332C402.461 838.65 429.843 821.464 457.374 824.308Z" fill="#FFADAD" fill-opacity="0.2"/>
<path d="M111.546 545.121L223.348 634.181L73.4453 682.887L111.546 545.121Z" fill="#A0C4FF" fill-opacity="0.2"/>
<path fill-rule="evenodd" clip-rule="evenodd" d="M1431.66 985.952C1509.19 956.125 1614.25 940.807 1704.35 924.415C1779.51 910.761 1887.3 874.029 1962.21 885.694C2050.27 899.391 2038.92 960.66 2033.78 998.614C2028.78 1035.92 2035.91 1077.95 2012.9 1115.17C1988.96 1153.95 1882.1 1190.32 1804.75 1204.93C1718.47 1221.21 1619.85 1213.04 1547.21 1196.23C1471.11 1178.65 1427.79 1140.84 1397.91 1104.82C1365.96 1066.31 1341.58 1020.56 1431.66 985.952Z" stroke="#FF8062" stroke-opacity="0.1" stroke-width="5"/>
<path fill-rule="evenodd" clip-rule="evenodd" d="M1491.27 992.369C1559.78 968.416 1645.4 954.03 1723.39 941.542C1783.58 931.898 1877.3 913.664 1933.65 924.703C1995.65 936.845 2016.29 973.249 2008.7 1004.46C2001.21 1035.24 1987.02 1072.81 1956.15 1101.76C1888.91 1164.81 1646.66 1199.97 1534.7 1169.13C1428.55 1139.89 1354.71 1040.08 1491.27 992.369Z" stroke="#5ACEF2" stroke-opacity="0.1" stroke-width="5"/>
<path fill-rule="evenodd" clip-rule="evenodd" d="M1539.21 1000.59C1630.86 969.889 1804.67 935.286 1902.98 954.476C2015.82 976.511 1966.46 1045.62 1896.04 1088.35C1824.24 1131.97 1613.64 1172.44 1522.81 1141.63C1434.15 1111.55 1430.54 1037.01 1539.21 1000.59Z" stroke="#5BE7C3" stroke-opacity="0.1" stroke-width="5"/>
<path fill-rule="evenodd" clip-rule="evenodd" d="M1582.78 1003.29C1659.92 977.673 1788.49 952.516 1871.03 968.466C1969.37 987.481 1902.36 1040.45 1839.9 1069.01C1775.01 1098.65 1602.82 1136.24 1529.67 1108.99C1458.59 1082.45 1508.84 1027.85 1582.78 1003.29Z" stroke="#FF8062" stroke-opacity="0.1" stroke-width="5"/>
<path fill-rule="evenodd" clip-rule="evenodd" d="M1617.33 1007.69C1670.43 988.997 1767.31 971.693 1825.64 982.876C1896.92 996.563 1831.63 1036 1788.62 1052.59C1737.47 1072.33 1613.95 1099.28 1561.96 1079.61C1510.77 1060.25 1573.55 1023.09 1617.33 1007.69Z" stroke="#5ACEF2" stroke-opacity="0.1" stroke-width="5"/>
<path fill-rule="evenodd" clip-rule="evenodd" d="M32.9352 478.226C41.9197 494.968 65.4435 502.453 85.4771 494.945C211.869 447.575 322.843 375.341 408.943 284.981C435.456 291.794 463.234 295.312 491.565 295.312C646.651 295.312 772.373 190.248 772.373 60.6445C772.373 -0.0507202 744.55 -56.7085 697.111 -99.2754C898.281 -159.753 1038.67 -320.588 1038.67 -505.723C1038.67 -744.251 807.282 -937.617 521.854 -937.617C376.555 -937.617 241.064 -887.162 144.351 -800.704C18.918 -857.681 -122.019 -888.047 -268.193 -888.047C-746.001 -888.047 -1133.33 -564.35 -1133.33 -165.036C-1133.33 -155.556 -1133.11 -146.097 -1132.68 -136.663C-1131.83 -118.328 -1113.36 -104.039 -1091.42 -104.748C-1069.48 -105.457 -1052.38 -120.895 -1053.23 -139.229C-1053.62 -147.809 -1053.82 -156.413 -1053.82 -165.037C-1053.82 -527.654 -702.089 -821.602 -268.193 -821.602C-125.308 -821.602 11.8944 -789.709 132.053 -730.136C135.277 -728.475 138.704 -727.241 142.229 -726.424C148.004 -725.08 153.979 -724.875 159.718 -725.715C165.485 -726.555 171.05 -728.456 175.955 -731.382C178.923 -733.148 181.632 -735.277 183.978 -737.746C266.576 -821.643 389.324 -871.172 521.854 -871.172C763.37 -871.172 959.157 -707.555 959.157 -505.723C959.157 -329.51 808.809 -179.281 604.157 -146.73C567.928 -140.967 559.799 -100.663 591.766 -85.2952C653.827 -55.46 692.863 -0.269958 692.863 60.6445C692.863 153.551 602.739 228.867 491.565 228.867C463.478 228.867 436.268 224.077 411.144 214.915C394.174 208.726 374.339 213.147 363.31 225.577C282.992 316.099 175.984 388.203 52.9414 434.317C32.9078 441.825 23.9508 461.484 32.9352 478.226ZM183.978 -737.746C185.086 -738.912 186.114 -740.154 187.049 -741.469C198.266 -757.243 192.058 -777.628 173.184 -787.002C163.669 -791.728 154.057 -796.295 144.351 -800.704C136.7 -793.864 129.292 -786.799 122.141 -779.516C108.214 -765.332 110.683 -744.398 127.656 -732.759C129.07 -731.79 130.539 -730.916 132.053 -730.136C132.223 -730.051 132.394 -729.967 132.564 -729.882C135.664 -728.343 138.914 -727.196 142.229 -726.424C147.956 -725.097 153.939 -724.873 159.718 -725.715C165.525 -726.565 171.088 -728.486 175.955 -731.382C178.748 -733.048 181.327 -735.045 183.607 -737.368C183.731 -737.494 183.854 -737.62 183.978 -737.746Z" fill="#D0E215" fill-opacity="0.1"/>
</g>
<defs>
<linearGradient id="paint0_linear" x1="960" y1="0" x2="960" y2="1080" gradientUnits="userSpaceOnUse">
<stop stop-color="#023047"/>
<stop offset="1" stop-color="#219EBC"/>
</linearGradient>
<linearGradient id="paint1_linear" x1="1469" y1="-14" x2="1469" y2="1080" gradientUnits="userSpaceOnUse">
<stop stop-color="#82C8F0"/>
<stop offset="1" stop-color="#82C8F0" stop-opacity="0"/>
</linearGradient>
<linearGradient id="paint2_linear" x1="1419.5" y1="-18" x2="1419.5" y2="1080" gradientUnits="userSpaceOnUse">
<stop stop-color="#8ECAE6"/>
<stop offset="1" stop-color="#219EBC"/>
</linearGradient>
<linearGradient id="paint3_linear" x1="1372" y1="-43" x2="1372" y2="1080" gradientUnits="userSpaceOnUse">
<stop stop-color="#8ECAE6"/>
<stop offset="1" stop-color="#219EBC"/>
</linearGradient>
<clipPath id="clip0">
<rect width="1920" height="1080" fill="white"/>
</clipPath>
</defs>
</svg>
