<svg width="43" height="43" viewBox="0 0 43 43" fill="none" xmlns="http://www.w3.org/2000/svg">
<g filter="url(#filter0_d)">
<rect x="3" y="4" width="35" height="35" rx="9" fill="#4A056B"/>
</g>
<g filter="url(#filter1_d)">
<path d="M10.567 18.71H12.178V21.662H13.303V18.71H14.923V26H13.303V22.814H12.178V26H10.567V18.71ZM16.9602 19.907H15.8622V18.71H19.6692V19.907H18.5802V26H16.9602V19.907ZM20.6448 18.71H22.3728L23.1738 22.949L24.0378 18.71H25.7028L25.8288 26H24.6858L24.5508 21.149L23.7048 26H22.6878L21.7878 21.113L21.6798 26H20.5188L20.6448 18.71ZM27.1527 18.71H28.7637V24.911H30.4377V26H27.1527V18.71Z" fill="white"/>
</g>
<defs>
<filter id="filter0_d" x="0" y="0" width="43" height="43" filterUnits="userSpaceOnUse" color-interpolation-filters="sRGB">
<feFlood flood-opacity="0" result="BackgroundImageFix"/>
<feColorMatrix in="SourceAlpha" type="matrix" values="0 0 0 0 0 0 0 0 0 0 0 0 0 0 0 0 0 0 127 0"/>
<feOffset dx="1"/>
<feGaussianBlur stdDeviation="2"/>
<feColorMatrix type="matrix" values="0 0 0 0 0.290196 0 0 0 0 0.0196078 0 0 0 0 0.419608 0 0 0 1 0"/>
<feBlend mode="normal" in2="BackgroundImageFix" result="effect1_dropShadow"/>
<feBlend mode="normal" in="SourceGraphic" in2="effect1_dropShadow" result="shape"/>
</filter>
<filter id="filter1_d" x="10.567" y="17.71" width="21.8707" height="9.29" filterUnits="userSpaceOnUse" color-interpolation-filters="sRGB">
<feFlood flood-opacity="0" result="BackgroundImageFix"/>
<feColorMatrix in="SourceAlpha" type="matrix" values="0 0 0 0 0 0 0 0 0 0 0 0 0 0 0 0 0 0 127 0"/>
<feOffset dx="1"/>
<feGaussianBlur stdDeviation="0.5"/>
<feColorMatrix type="matrix" values="0 0 0 0 0 0 0 0 0 0 0 0 0 0 0 0 0 0 0.25 0"/>
<feBlend mode="normal" in2="BackgroundImageFix" result="effect1_dropShadow"/>
<feBlend mode="normal" in="SourceGraphic" in2="effect1_dropShadow" result="shape"/>
</filter>
</defs>
</svg>
