<svg width="49" height="68" viewBox="0 0 49 68" fill="none" xmlns="http://www.w3.org/2000/svg">
<g clip-path="url(#clip0)">
<g filter="url(#filter0_d)">
<path d="M4.77344 51.66H9.21344V61.5H12.8934V65H4.77344V51.66ZM23.6961 56.2C23.4561 55.9867 23.1561 55.8267 22.7961 55.72C22.4361 55.6 22.0828 55.54 21.7361 55.54C21.3494 55.54 20.9961 55.6133 20.6761 55.76C20.3561 55.8933 20.0761 56.0867 19.8361 56.34C19.6094 56.58 19.4294 56.8733 19.2961 57.22C19.1628 57.5667 19.0961 57.94 19.0961 58.34C19.0961 58.74 19.1694 59.1133 19.3161 59.46C19.4628 59.8067 19.6628 60.1067 19.9161 60.36C20.1694 60.6 20.4628 60.7933 20.7961 60.94C21.1428 61.0733 21.5094 61.14 21.8961 61.14C22.3494 61.14 22.7628 61.0467 23.1361 60.86C23.5094 60.66 23.8294 60.3933 24.0961 60.06H22.8961V57.26H28.0361V61.7C27.7294 62.2467 27.3628 62.7467 26.9361 63.2C26.5094 63.64 26.0294 64.02 25.4961 64.34C24.9761 64.66 24.4094 64.9067 23.7961 65.08C23.1828 65.2533 22.5494 65.34 21.8961 65.34C20.9361 65.34 20.0294 65.16 19.1761 64.8C18.3228 64.44 17.5761 63.9467 16.9361 63.32C16.3094 62.6933 15.8094 61.9533 15.4361 61.1C15.0761 60.2467 14.8961 59.3267 14.8961 58.34C14.8961 57.38 15.0694 56.4733 15.4161 55.62C15.7628 54.7667 16.2361 54.0267 16.8361 53.4C17.4494 52.76 18.1694 52.26 18.9961 51.9C19.8361 51.5267 20.7361 51.34 21.6961 51.34C22.4428 51.34 23.0894 51.4133 23.6361 51.56C24.1828 51.7067 24.6428 51.8733 25.0161 52.06C25.4561 52.2733 25.8228 52.5067 26.1161 52.76L23.6961 56.2ZM31.0414 58.34C31.0414 57.2733 31.2281 56.3133 31.6014 55.46C31.9747 54.5933 32.4814 53.8533 33.1214 53.24C33.7614 52.6267 34.5081 52.16 35.3614 51.84C36.2147 51.5067 37.1214 51.34 38.0814 51.34C38.8414 51.34 39.5147 51.4133 40.1014 51.56C40.7014 51.7067 41.2147 51.8733 41.6414 52.06C42.1347 52.2733 42.5614 52.5067 42.9214 52.76L40.8214 56.46C40.6081 56.3 40.3747 56.1467 40.1214 56C39.8947 55.8933 39.6214 55.7933 39.3014 55.7C38.9947 55.5933 38.6414 55.54 38.2414 55.54C37.8281 55.54 37.4481 55.6133 37.1014 55.76C36.7547 55.9067 36.4481 56.1067 36.1814 56.36C35.9281 56.6133 35.7281 56.9133 35.5814 57.26C35.4347 57.5933 35.3614 57.9533 35.3614 58.34C35.3614 58.7267 35.4347 59.0933 35.5814 59.44C35.7414 59.7733 35.9547 60.0667 36.2214 60.32C36.4881 60.5733 36.8014 60.7733 37.1614 60.92C37.5214 61.0667 37.9147 61.14 38.3414 61.14C38.7681 61.14 39.1481 61.0867 39.4814 60.98C39.8147 60.8733 40.0947 60.7533 40.3214 60.62C40.5881 60.4733 40.8214 60.3 41.0214 60.1L43.1214 63.8C42.7614 64.0933 42.3347 64.3533 41.8414 64.58C41.4147 64.7667 40.9014 64.94 40.3014 65.1C39.7014 65.26 39.0147 65.34 38.2414 65.34C37.2014 65.34 36.2414 65.1733 35.3614 64.84C34.4814 64.4933 33.7214 64.0133 33.0814 63.4C32.4414 62.7867 31.9414 62.0533 31.5814 61.2C31.2214 60.3333 31.0414 59.38 31.0414 58.34Z" fill="#E76F51"/>
</g>
<g filter="url(#filter1_d)">
<rect x="21.1919" y="4" width="12.5185" height="5" rx="1" transform="rotate(26 21.1919 4)" fill="#E76F51"/>
<rect x="14" y="19.0996" width="12.5185" height="5" rx="1" transform="rotate(116 14 19.0996)" fill="#E76F51"/>
<rect x="44.2" y="22.1914" width="12.5185" height="5" rx="1" transform="rotate(116 44.2 22.1914)" fill="#E76F51"/>
<rect x="18.1919" y="36" width="12.5185" height="5" rx="1" transform="rotate(26 18.1919 36)" fill="#E76F51"/>
<rect x="42.2334" y="13.0928" width="24.46" height="5" transform="rotate(115 42.2334 13.0928)" fill="#E76F51"/>
<rect x="38.2674" y="33.8145" width="4" height="5.27705" transform="rotate(115 38.2674 33.8145)" fill="#E76F51"/>
<circle cx="41.3759" cy="8.97684" r="4" transform="rotate(1 41.3759 8.97684)" stroke="#E76F51" stroke-width="3"/>
<rect x="36.1013" y="43.7812" width="24.46" height="5" transform="rotate(-154.5 36.1013 43.7812)" fill="#E76F51"/>
<rect x="15.4152" y="39.6348" width="4" height="5.27705" transform="rotate(-154.5 15.4152 39.6348)" fill="#E76F51"/>
<circle cx="40.2247" cy="42.9601" r="4" transform="rotate(91.5 40.2247 42.9601)" stroke="#E76F51" stroke-width="3"/>
<rect x="12.2952" y="6.27539" width="24.46" height="5" transform="rotate(26 12.2952 6.27539)" fill="#E76F51"/>
<rect x="32.9443" y="10.6025" width="4" height="5.27705" transform="rotate(26 32.9443 10.6025)" fill="#E76F51"/>
<circle cx="8.1647" cy="7.06045" r="4" transform="rotate(-88 8.1647 7.06045)" stroke="#E76F51" stroke-width="3"/>
<rect x="6.21869" y="36.8174" width="24.46" height="5" transform="rotate(-64.5 6.21869 36.8174)" fill="#E76F51"/>
<rect x="10.3654" y="16.1318" width="4" height="5.27705" transform="rotate(-64.5 10.3654 16.1318)" fill="#E76F51"/>
<circle cx="7.04024" cy="40.9413" r="4" transform="rotate(-178.5 7.04024 40.9413)" stroke="#E76F51" stroke-width="3"/>
</g>
</g>
<defs>
<filter id="filter0_d" x="1.77344" y="48.3398" width="46.348" height="22" filterUnits="userSpaceOnUse" color-interpolation-filters="sRGB">
<feFlood flood-opacity="0" result="BackgroundImageFix"/>
<feColorMatrix in="SourceAlpha" type="matrix" values="0 0 0 0 0 0 0 0 0 0 0 0 0 0 0 0 0 0 127 0"/>
<feOffset dx="1" dy="1"/>
<feGaussianBlur stdDeviation="2"/>
<feColorMatrix type="matrix" values="0 0 0 0 0 0 0 0 0 0 0 0 0 0 0 0 0 0 1 0"/>
<feBlend mode="normal" in2="BackgroundImageFix" result="effect1_dropShadow"/>
<feBlend mode="normal" in="SourceGraphic" in2="effect1_dropShadow" result="shape"/>
</filter>
<filter id="filter1_d" x="-1.45978" y="-0.439453" width="53.3357" height="54.8995" filterUnits="userSpaceOnUse" color-interpolation-filters="sRGB">
<feFlood flood-opacity="0" result="BackgroundImageFix"/>
<feColorMatrix in="SourceAlpha" type="matrix" values="0 0 0 0 0 0 0 0 0 0 0 0 0 0 0 0 0 0 127 0"/>
<feOffset dx="1" dy="2"/>
<feGaussianBlur stdDeviation="2"/>
<feColorMatrix type="matrix" values="0 0 0 0 0 0 0 0 0 0 0 0 0 0 0 0 0 0 1 0"/>
<feBlend mode="normal" in2="BackgroundImageFix" result="effect1_dropShadow"/>
<feBlend mode="normal" in="SourceGraphic" in2="effect1_dropShadow" result="shape"/>
</filter>
<clipPath id="clip0">
<rect width="49" height="68" rx="6" fill="white"/>
</clipPath>
</defs>
</svg>
